/vscmnt/brussel_pixiu_data/_data_brussel/112/vsc11236/PredSimResults/SUBJ11mtu3D/weighted-trackIG/worker_03.mot
version=1
nRows=4
nColumns=50
inDegrees=yes
endheader
                time	         pelvis_tilt	         pelvis_list	     pelvis_rotation	           pelvis_tx	           pelvis_ty	           pelvis_tz	       hip_flexion_r	     hip_adduction_r	      hip_rotation_r	        knee_angle_r	       ankle_angle_r	         mtp_angle_r	       hip_flexion_l	     hip_adduction_l	      hip_rotation_l	        knee_angle_l	       ankle_angle_l	         mtp_angle_l	    lumbar_extension	      lumbar_bending	     lumbar_rotation	 ercspn_r/activation	 intobl_r/activation	 extobl_r/activation	    abd_r/activation	    add_r/activation	hamstrings_r/activation	bifemsh_r/activation	glut_max_r/activation	iliopsoas_r/activation	rect_fem_r/activation	  vasti_r/activation	gastroc_r/activation	 soleus_r/activation	tib_ant_r/activation	 ercspn_l/activation	 intobl_l/activation	 extobl_l/activation	    abd_l/activation	    add_l/activation	hamstrings_l/activation	bifemsh_l/activation	glut_max_l/activation	iliopsoas_l/activation	rect_fem_l/activation	  vasti_l/activation	gastroc_l/activation	 soleus_l/activation	tib_ant_l/activation	
          0.00000000	         -6.14351420	         -4.97510440	          8.19267612	          0.00000000	          0.93994099	         -0.01744480	         31.46875314	          1.29165922	         -4.62233157	         -3.94368530	          5.67108575	          0.20934857	        -12.21515333	         -5.45686920	          4.58240781	         -6.72491814	         12.66814911	         26.41459590	         -4.06389752	          3.02756147	         -2.16372786	          0.09451213	          0.15186567	          0.02847126	          0.01232766	          0.09220025	          0.05762128	          0.21570082	          0.01201061	          0.09993020	          0.01098044	          0.00999999	          0.01896676	          0.00999999	          0.28370745	          0.02821950	          0.00999999	          0.00999999	          0.05333990	          0.02271939	          0.02710952	          0.13904083	          0.05333989	          0.44715055	          0.01000001	          0.01000000	          0.36165286	          0.26381720	          0.01232767	
          0.01396611	         -6.27288791	         -4.81730213	          8.24715673	          0.01784009	          0.93769132	         -0.01677707	         31.63951593	          1.30478990	         -4.65332099	         -5.60818352	          5.23028840	          0.21872396	        -12.51933935	         -5.37135514	          4.21229955	         -7.93338365	         12.16642096	         28.38832343	         -3.77413832	          3.30444534	         -2.35975844	          0.07666656	          0.12319086	          0.02309538	          0.00999999	          0.13671709	          0.05284554	          0.17497269	          0.05850240	          0.08106161	          0.01000000	          0.00999999	          0.02309542	          0.01519717	          0.29548533	          0.06586082	          0.00999999	          0.01000000	          0.04326838	          0.04642271	          0.02199077	          0.11278746	          0.04326838	          0.45571167	          0.01000001	          0.01000000	          0.33264757	          0.24984597	          0.00999999	
          0.02793223	         -6.37774410	         -4.65230361	          8.24923407	          0.03612462	          0.93575674	         -0.01602557	         31.60176705	          1.30667723	         -4.65768204	         -7.23271744	          4.78602057	          0.18690645	        -12.67308542	         -5.26790838	          3.81686971	         -9.49232319	         11.53246106	         30.45958500	         -3.46668942	          3.58887869	         -2.53429773	          0.07036829	          0.09993024	          0.01873456	          0.05827529	          0.12890593	          0.05777969	          0.14193475	          0.08251564	          0.06575574	          0.00999999	          0.00999999	          0.01873459	          0.01232768	          0.33755108	          0.07980848	          0.00999999	          0.00999999	          0.03509854	          0.03765811	          0.02224197	          0.09149119	          0.03509854	          0.44602099	          0.01000002	          0.01873462	          0.29783723	          0.23142939	          0.00999999	
          0.04189834	         -6.46013595	         -4.48060993	          8.20117087	          0.05455455	          0.93440516	         -0.01516702	         31.38589820	          1.31458222	         -4.68460631	         -8.56966257	          4.18292258	          0.15833879	        -12.58387684	         -5.14573840	          3.40652181	        -11.50746877	         10.70819226	         32.62094024	         -3.17074281	          3.87513857	         -2.68190680	          0.08291298	          0.08106164	          0.01519715	          0.11318429	          0.15935334	          0.05319030	          0.11513495	          0.11252105	          0.05333989	          0.00999999	          0.00999999	          0.01519717	          0.00999999	          0.36928058	          0.10990973	          0.00999999	          0.00999999	          0.02847131	          0.04792302	          0.02193566	          0.07421603	          0.02847131	          0.43093372	          0.01000012	          0.01519719	          0.24160027	          0.18825486	          0.00999999	
